<svg xmlns="http://www.w3.org/2000/svg" width="142" height="142" viewBox="0 0 142 142">
    <g fill="none" fill-rule="evenodd">
        <circle cx="71" cy="71" r="71" fill="#9D8C70"/>
        <path fill="#FFF" d="M22.813 101.457l-.946 1.113c1.101.1 2.084.232 2.95.4.866.166 1.667.352 2.403.556.736.204 1.383.417 1.94.64 1.954.816 2.93 1.954 2.93 3.414 0 .89-.407 1.763-1.224 2.616-.816.854-1.877 1.615-3.182 2.283a20.952 20.952 0 0 1-4.026 1.567c-1.38.378-2.632.566-3.758.566-1.88 0-3.346-.35-4.397-1.048-1.052-.699-1.577-1.654-1.577-2.867 0-.84.321-1.83.965-2.968.643-1.139 1.639-2.555 2.987-4.25-1.014-.049-1.732-.2-2.152-.454-.421-.254-.631-.61-.631-1.067 0-.284.08-.501.24-.65a1.46 1.46 0 0 1 .65-.324c.272-.068.795-.152 1.568-.25.773-.1 1.766-.223 2.978-.372 1.349-1.657 2.558-2.903 3.628-3.738 1.07-.835 2.217-1.315 3.442-1.438.099-.013.207-.019.324-.019.118 0 .177.03.177.093 0 .074-.14.272-.418.594-.278.321-.73.834-1.354 1.54l-2.218 2.504c2.326-.309 4.228-.664 5.706-1.066 1.478-.402 2.594-.882 3.349-1.438.755-.557 1.132-1.176 1.132-1.856 0-.829-.402-1.429-1.206-1.8-.804-.37-2.035-.556-3.693-.556-.915 0-1.963.092-3.145.278a38.92 38.92 0 0 0-3.21.63c-.958.236-1.812.486-2.56.752-.749.266-1.123.461-1.123.585 0 .037.037.074.112.111.606.223.909.408.909.557 0 .198-.928.578-2.783 1.14-1.856.564-3.105.845-3.748.845-.458 0-.687-.229-.687-.686 0-.545.498-1.525 1.494-2.941.995-1.417 1.902-2.323 2.718-2.719.284-.136.946-.352 1.985-.649a56.464 56.464 0 0 1 7.218-1.54c1.287-.186 2.425-.278 3.414-.278 2.338 0 4.095.417 5.27 1.252 1.175.835 1.762 1.883 1.762 3.145 0 .854-.269 1.676-.807 2.468s-1.376 1.54-2.514 2.245c-1.138.705-2.62 1.324-4.444 1.855-1.824.532-3.974.94-6.448 1.225zm-1.966 2.394c-.644.767-1.216 1.444-1.717 2.031-.5.588-.86 1.064-1.076 1.429a2.144 2.144 0 0 0-.325 1.104c0 .594.307 1.123.919 1.586.612.464 1.494.696 2.644.696 1.064 0 2.199-.188 3.405-.566 1.206-.377 2.22-.869 3.043-1.475.822-.606 1.234-1.218 1.234-1.837 0-.532-.303-.97-.91-1.317-.606-.346-1.527-.653-2.764-.919-1.237-.265-2.722-.51-4.453-.732zm24.715 4.267v1.243c-.817.743-1.472 1.237-1.967 1.485-.495.247-1.206.346-2.134.297-1.608 1.905-3.024 2.857-4.25 2.857-.692 0-1.323-.229-1.892-.687-.569-.457-1.023-1.082-1.363-1.874-.34-.791-.51-1.676-.51-2.653 0-.792.262-1.67.788-2.635a11.804 11.804 0 0 1 2.04-2.7 11.535 11.535 0 0 1 2.682-2.022c.953-.513 1.837-.77 2.653-.77.582 0 1.04.09 1.373.27.334.179.501.43.501.75 0 .248-.142.533-.426.854.47.1.791.263.964.492.174.229.26.646.26 1.252 0 .594-.139 1.342-.417 2.245-.279.903-.659 1.75-1.141 2.542l.334.334h.278c.21 0 .417-.052.622-.157a4.14 4.14 0 0 0 .547-.334c.16-.118.513-.38 1.058-.789zm-3.823-4.88a53.528 53.528 0 0 0-2.635 1.68 12.726 12.726 0 0 0-1.855 1.521c-.507.513-.847 1.03-1.02 1.55-.31 1.385-.464 2.133-.464 2.244 0 .817.569 1.225 1.707 1.225.532 0 1.422-.458 2.672-1.373a4.906 4.906 0 0 1-.316-1.67c0-.78.16-1.574.483-2.384.321-.81.797-1.741 1.428-2.793zm15.716 4.88v1.243c-.816.743-1.472 1.237-1.967 1.485-.495.247-1.206.346-2.134.297-1.608 1.905-3.024 2.857-4.249 2.857-.692 0-1.323-.229-1.892-.687-.57-.457-1.024-1.082-1.364-1.874-.34-.791-.51-1.676-.51-2.653 0-.792.263-1.67.788-2.635a11.804 11.804 0 0 1 2.041-2.7 11.535 11.535 0 0 1 2.682-2.022c.952-.513 1.837-.77 2.653-.77.581 0 1.039.09 1.373.27.334.179.501.43.501.75 0 .248-.142.533-.427.854.47.1.792.263.965.492.173.229.26.646.26 1.252 0 .594-.14 1.342-.418 2.245-.278.903-.658 1.75-1.14 2.542l.333.334h.279c.21 0 .417-.052.621-.157a4.14 4.14 0 0 0 .547-.334c.161-.118.514-.38 1.058-.789zm-3.822-4.88a53.528 53.528 0 0 0-2.635 1.68 12.726 12.726 0 0 0-1.855 1.521c-.508.513-.848 1.03-1.02 1.55-.31 1.385-.465 2.133-.465 2.244 0 .817.57 1.225 1.707 1.225.532 0 1.423-.458 2.672-1.373a4.906 4.906 0 0 1-.315-1.67c0-.78.16-1.574.482-2.384.322-.81.798-1.741 1.429-2.793zm17.775 4.917v1.243c-1.385 1.62-2.548 2.849-3.488 3.684s-1.726 1.252-2.357 1.252c-.606 0-1.153-.18-1.642-.538-.488-.359-.927-.854-1.317-1.484-.39-.631-.85-1.51-1.382-2.635-.631.78-1.2 1.506-1.707 2.18-.508.674-.86 1.122-1.058 1.345-.198.223-.377.334-.538.334-.334 0-.575-.213-.724-.64-.148-.427-.222-1.048-.222-1.865 0-1.113.133-2.186.399-3.219s.649-2.038 1.15-3.015c.501-.977 1.144-2.032 1.93-3.164a71.75 71.75 0 0 1 2.644-3.553c1.348-1.707 2.51-3.102 3.488-4.184.977-1.082 1.828-1.899 2.551-2.45.724-.55 1.327-.825 1.81-.825.593 0 .89.266.89.798 0 .458-1.095 2.106-3.284 4.945-2.19 2.839-5.381 6.713-9.574 11.624v1.596c2.808-3.006 5.068-5.239 6.781-6.698 1.714-1.46 3.04-2.19 3.98-2.19.384 0 .68.226.89.678.211.451.316.974.316 1.567 0 1.213-.52 2.335-1.558 3.368-1.04 1.033-2.635 2.217-4.787 3.553.37.557.699.962.983 1.216.285.253.643.38 1.076.38.384 0 .798-.13 1.243-.39.446-.26.9-.587 1.364-.983a82.518 82.518 0 0 0 2.143-1.93zm-7.329.947c.47-.31 1.055-.789 1.754-1.438a13.128 13.128 0 0 0 1.79-2.023c.495-.699.742-1.283.742-1.753 0-.198-.086-.297-.26-.297-.47 0-1.277.451-2.42 1.354-1.145.903-2.261 2.06-3.35 3.47.47 0 1.051.229 1.744.687zm17.367-7.645l-.946 1.113c1.1.1 2.084.232 2.95.4.866.166 1.667.352 2.403.556.736.204 1.382.417 1.939.64 1.954.816 2.932 1.954 2.932 3.414 0 .89-.409 1.763-1.225 2.616-.816.854-1.877 1.615-3.182 2.283a20.952 20.952 0 0 1-4.026 1.567c-1.38.378-2.632.566-3.758.566-1.88 0-3.346-.35-4.397-1.048-1.052-.699-1.577-1.654-1.577-2.867 0-.84.321-1.83.964-2.968.644-1.139 1.64-2.555 2.988-4.25-1.015-.049-1.732-.2-2.153-.454-.42-.254-.63-.61-.63-1.067 0-.284.08-.501.24-.65a1.46 1.46 0 0 1 .65-.324c.272-.068.795-.152 1.568-.25.773-.1 1.766-.223 2.978-.372 1.348-1.657 2.558-2.903 3.628-3.738 1.07-.835 2.217-1.315 3.441-1.438.1-.013.208-.019.325-.019.118 0 .176.03.176.093 0 .074-.139.272-.417.594-.278.321-.73.834-1.355 1.54l-2.217 2.504c2.326-.309 4.227-.664 5.706-1.066 1.478-.402 2.594-.882 3.349-1.438.754-.557 1.132-1.176 1.132-1.856 0-.829-.402-1.429-1.206-1.8-.804-.37-2.035-.556-3.693-.556-.915 0-1.963.092-3.145.278a38.92 38.92 0 0 0-3.21.63c-.958.236-1.812.486-2.56.752-.749.266-1.123.461-1.123.585 0 .037.037.074.111.111.607.223.91.408.91.557 0 .198-.928.578-2.784 1.14-1.855.564-3.104.845-3.748.845-.457 0-.686-.229-.686-.686 0-.545.498-1.525 1.494-2.941.995-1.417 1.901-2.323 2.718-2.719.284-.136.946-.352 1.985-.649a56.464 56.464 0 0 1 7.218-1.54c1.286-.186 2.424-.278 3.414-.278 2.338 0 4.094.417 5.27 1.252 1.175.835 1.762 1.883 1.762 3.145 0 .854-.269 1.676-.807 2.468s-1.376 1.54-2.514 2.245c-1.138.705-2.62 1.324-4.444 1.855-1.825.532-3.974.94-6.448 1.225zm-1.967 2.394c-.643.767-1.215 1.444-1.716 2.031-.5.588-.86 1.064-1.076 1.429a2.144 2.144 0 0 0-.325 1.104c0 .594.306 1.123.919 1.586.612.464 1.493.696 2.644.696 1.064 0 2.199-.188 3.405-.566 1.206-.377 2.22-.869 3.043-1.475.822-.606 1.233-1.218 1.233-1.837 0-.532-.303-.97-.909-1.317-.606-.346-1.527-.653-2.764-.919-1.237-.265-2.722-.51-4.454-.732zm24.715 4.267v1.243c-.816.743-1.472 1.237-1.966 1.485-.495.247-1.207.346-2.134.297-1.608 1.905-3.025 2.857-4.25 2.857-.692 0-1.323-.229-1.892-.687-.569-.457-1.023-1.082-1.364-1.874-.34-.791-.51-1.676-.51-2.653 0-.792.263-1.67.789-2.635a11.804 11.804 0 0 1 2.04-2.7 11.535 11.535 0 0 1 2.682-2.022c.952-.513 1.837-.77 2.653-.77.582 0 1.04.09 1.373.27.334.179.501.43.501.75 0 .248-.142.533-.427.854.47.1.792.263.965.492.173.229.26.646.26 1.252 0 .594-.14 1.342-.417 2.245-.279.903-.66 1.75-1.142 2.542l.334.334h.279c.21 0 .417-.052.621-.157a4.14 4.14 0 0 0 .548-.334c.16-.118.513-.38 1.057-.789zm-3.822-4.88a53.528 53.528 0 0 0-2.635 1.68 12.726 12.726 0 0 0-1.855 1.521c-.507.513-.847 1.03-1.02 1.55-.31 1.385-.465 2.133-.465 2.244 0 .817.57 1.225 1.707 1.225.532 0 1.423-.458 2.672-1.373a4.906 4.906 0 0 1-.315-1.67c0-.78.16-1.574.482-2.384.322-.81.798-1.741 1.43-2.793zm15.716 4.88v1.243c-.817.743-1.472 1.237-1.967 1.485-.495.247-1.206.346-2.134.297-1.608 1.905-3.024 2.857-4.249 2.857-.692 0-1.323-.229-1.892-.687-.57-.457-1.024-1.082-1.364-1.874-.34-.791-.51-1.676-.51-2.653 0-.792.263-1.67.788-2.635a11.804 11.804 0 0 1 2.041-2.7 11.535 11.535 0 0 1 2.681-2.022c.953-.513 1.837-.77 2.654-.77.581 0 1.039.09 1.373.27.334.179.5.43.5.75 0 .248-.141.533-.426.854.47.1.792.263.965.492.173.229.26.646.26 1.252 0 .594-.14 1.342-.418 2.245-.278.903-.659 1.75-1.141 2.542l.334.334h.278c.21 0 .418-.052.622-.157a4.14 4.14 0 0 0 .547-.334c.161-.118.514-.38 1.058-.789zm-3.822-4.88a53.528 53.528 0 0 0-2.635 1.68 12.726 12.726 0 0 0-1.856 1.521c-.507.513-.847 1.03-1.02 1.55-.31 1.385-.464 2.133-.464 2.244 0 .817.569 1.225 1.707 1.225.532 0 1.423-.458 2.672-1.373a4.906 4.906 0 0 1-.316-1.67c0-.78.161-1.574.483-2.384.322-.81.798-1.741 1.429-2.793zm17.775 4.917v1.243c-1.385 1.62-2.548 2.849-3.488 3.684s-1.726 1.252-2.357 1.252c-.606 0-1.153-.18-1.642-.538-.488-.359-.928-.854-1.317-1.484-.39-.631-.85-1.51-1.383-2.635-.63.78-1.2 1.506-1.707 2.18-.507.674-.86 1.122-1.057 1.345-.198.223-.377.334-.538.334-.334 0-.575-.213-.724-.64-.148-.427-.223-1.048-.223-1.865 0-1.113.133-2.186.4-3.219.265-1.033.649-2.038 1.15-3.015.5-.977 1.144-2.032 1.93-3.164a71.75 71.75 0 0 1 2.644-3.553c1.348-1.707 2.51-3.102 3.488-4.184.977-1.082 1.827-1.899 2.551-2.45.724-.55 1.327-.825 1.81-.825.593 0 .89.266.89.798 0 .458-1.095 2.106-3.284 4.945-2.19 2.839-5.381 6.713-9.575 11.624v1.596c2.808-3.006 5.069-5.239 6.782-6.698 1.713-1.46 3.04-2.19 3.98-2.19.384 0 .68.226.89.678.211.451.316.974.316 1.567 0 1.213-.52 2.335-1.558 3.368-1.04 1.033-2.635 2.217-4.788 3.553.372.557.7.962.984 1.216.284.253.643.38 1.076.38.383 0 .798-.13 1.243-.39.445-.26.9-.587 1.364-.983a82.518 82.518 0 0 0 2.143-1.93zm-7.33.947c.471-.31 1.055-.789 1.754-1.438a13.128 13.128 0 0 0 1.79-2.023c.496-.699.743-1.283.743-1.753 0-.198-.087-.297-.26-.297-.47 0-1.277.451-2.421 1.354s-2.26 2.06-3.35 3.47c.47 0 1.052.229 1.745.687z"/>
        <path fill="#FFF" fill-rule="nonzero" d="M97.506 44.105c-.255-1.947-.291-5.301 1.488-6.427.032-.02.055-.05.083-.076 1.454-.473 2.46-1.137 1.67-2.03L79.296 29l-34.737 4.91s-3.978.578-3.623 6.862c.193 3.42 1.248 5.1 2.17 5.926l-2.85.873c-.79.893.215 1.557 1.67 2.03.028.026.05.055.083.076 1.778 1.127 1.744 4.48 1.488 6.428-6.386 1.843-4.094 2.444-4.094 2.444l1.401.345c-.985.905-1.964 2.622-1.78 5.878.355 6.282 3.622 6.716 3.622 6.716L65.377 79l34.31-8.45s2.294-.601-4.094-2.445c-.257-1.945-.293-5.298 1.49-6.428.032-.02.056-.05.082-.075 1.455-.473 2.46-1.136 1.67-2.03l-1.491-.457c.994-.61 2.488-2.204 2.722-6.343.162-2.848-.569-4.516-1.414-5.497l2.947-.726c0 .001 2.294-.6-4.093-2.444zm-24.92-.08l5.77-1.206 19.5-4.074 2.904-.608c-.928 1.727-.89 4.091-.736 5.61.034.344.073.658.11.897l-3.18.804-24.61 6.224.243-7.648zm-24.784 6.113l2.905.608 18.725 3.913 1.636.341 4.906 1.025.242 7.648-25.294-6.398-2.494-.63c.037-.239.075-.552.11-.897.153-1.518.193-3.883-.736-5.61zm-1.128-9.669c-.036-1.671.257-2.88.85-3.494a1.53 1.53 0 0 1 1.126-.474c.16 0 .277.023.285.023l14.967 4.96 7.467 2.476-.245 7.702-20.949-5.972-1.105-.314a.66.66 0 0 0-.138-.022c-.087-.006-2.158-.2-2.258-4.885zM69.21 75.663l-22.054-6.286a.646.646 0 0 0-.138-.022c-.088-.006-2.16-.2-2.26-4.883-.036-1.674.259-2.881.85-3.496a1.533 1.533 0 0 1 1.127-.474c.161 0 .277.022.285.022 0 0 .001 0 0 0l22.434 7.438-.244 7.701zm28.899-7.915c.035.345.073.658.111.897l-27.79 7.03.242-7.649 5.941-1.242.878.216 3.289-1.087 15.16-3.167 2.906-.608c-.93 1.727-.89 4.092-.737 5.61zm1.53-10.394a.526.526 0 0 0-.148.023l-2.096.597-19.957 5.69-.244-7.702 6.547-2.172 15.855-5.257c.002 0 .834-.189 1.445.443.59.614.884 1.823.85 3.494-.104 4.683-2.176 4.878-2.251 4.884z"/>
    </g>
</svg>
