<svg xmlns="http://www.w3.org/2000/svg" width="142" height="142" viewBox="0 0 142 142">
    <g fill="none" fill-rule="evenodd">
        <circle cx="71" cy="71" r="71" fill="#9D8C70"/>
        <text fill="#FFF" font-family="BrushScriptMT, Brush Script MT" font-size="38">
            <tspan x="12.367" y="114">BookBook</tspan>
        </text>
        <path fill="#FFF" fill-rule="nonzero" d="M97.506 44.105c-.255-1.947-.291-5.301 1.488-6.427.032-.02.055-.05.083-.076 1.454-.473 2.46-1.137 1.67-2.03L79.296 29l-34.737 4.91s-3.978.578-3.623 6.862c.193 3.42 1.248 5.1 2.17 5.926l-2.85.873c-.79.893.215 1.557 1.67 2.03.028.026.05.055.083.076 1.778 1.127 1.744 4.48 1.488 6.428-6.386 1.843-4.094 2.444-4.094 2.444l1.401.345c-.985.905-1.964 2.622-1.78 5.878.355 6.282 3.622 6.716 3.622 6.716L65.377 79l34.31-8.45s2.294-.601-4.094-2.445c-.257-1.945-.293-5.298 1.49-6.428.032-.02.056-.05.082-.075 1.455-.473 2.46-1.136 1.67-2.03l-1.491-.457c.994-.61 2.488-2.204 2.722-6.343.162-2.848-.569-4.516-1.414-5.497l2.947-.726c0 .001 2.294-.6-4.093-2.444zm-24.92-.08l5.77-1.206 19.5-4.074 2.904-.608c-.928 1.727-.89 4.091-.736 5.61.034.344.073.658.11.897l-3.18.804-24.61 6.224.243-7.648zm-24.784 6.113l2.905.608 18.725 3.913 1.636.341 4.906 1.025.242 7.648-25.294-6.398-2.494-.63c.037-.239.075-.552.11-.897.153-1.518.193-3.883-.736-5.61zm-1.128-9.669c-.036-1.671.257-2.88.85-3.494a1.53 1.53 0 0 1 1.126-.474c.16 0 .277.023.285.023l14.967 4.96 7.467 2.476-.245 7.702-20.949-5.972-1.105-.314a.66.66 0 0 0-.138-.022c-.087-.006-2.158-.2-2.258-4.885zM69.21 75.663l-22.054-6.286a.646.646 0 0 0-.138-.022c-.088-.006-2.16-.2-2.26-4.883-.036-1.674.259-2.881.85-3.496a1.533 1.533 0 0 1 1.127-.474c.161 0 .277.022.285.022 0 0 .001 0 0 0l22.434 7.438-.244 7.701zm28.899-7.915c.035.345.073.658.111.897l-27.79 7.03.242-7.649 5.941-1.242.878.216 3.289-1.087 15.16-3.167 2.906-.608c-.93 1.727-.89 4.092-.737 5.61zm1.53-10.394a.526.526 0 0 0-.148.023l-2.096.597-19.957 5.69-.244-7.702 6.547-2.172 15.855-5.257c.002 0 .834-.189 1.445.443.59.614.884 1.823.85 3.494-.104 4.683-2.176 4.878-2.251 4.884z"/>
    </g>
</svg>
